Lonny Smith, a young man with a suitcase full of money, who might drop dead at any moment is searching for love with each dying breath even if he has to pay for it. One is an ex-assassin slave runner, who operates a mail order bride scam exploiting prostitutes infected by HIV. Another is a mysterious club owner named Kyo, who manages a cabaret show and finally, a vixen named Nana, the girl who will bring it all crashing down. They all will carve their way through the macabre alleys of a magical land buried in South East Asia, a city named Pali, the city of gold. In two days their lives will twist and turn, slicing a bloody trail leading them to a cryptic divine plan to create a new Lotus. She is an individual that can heal anything she touches, only, the current Lotus is suicidal, and has promised never to heal again.

This two day adventure bereft with unfortunate players, in a do-or-die land, will entwine together in the most abstract of ways, to create a unique ethnically diverse surreal love-action-crime drama, that questions the importance of life and love. Through their eyes, we will uncover a miracle in the most unlikely of places.


General
Complete name                    : Z:\Movies\The.Lazarus.Papers.[The.Mercenary].[2010].DvdRip.XviD-Knã\The.Lazarus.Papers.[The.Mercenary].[2010].DvdRip.XviD-Knã.avi
Format                           : AVI
Format/Info                      : Audio Video Interleave
File size                        : 898 MiB
Duration                         : 1h 28mn
Overall bit rate                 : 1 415 Kbps
Writing application              : VirtualDubMod 1.5.4.1 (build 2178/release)
Writing library                  : VirtualDubMod build 2178/release

Video
ID                               : 0
Format                           : MPEG-4 Visual
Format profile                   : Advanced Simple@L5
Format settings, BVOP            : 1
Format settings, QPel            : No
Format settings, GMC             : No warppoints
Format settings, Matrix          : Custom
Codec ID                         : XVID
Codec ID/Hint                    : XviD
Duration                         : 1h 28mn
Bit rate                         : 960 Kbps
Width                            : 640 pixels
Height                           : 368 pixels
Display aspect ratio             : 16:9
Frame rate                       : 25.000 fps
Color space                      : YUV
Chroma subsampling               : 4:2:0
Bit depth                        : 8 bits
Scan type                        : Progressive
Compression mode                 : Lossy
Bits/(Pixel*Frame)               : 0.163
Stream size                      : 609 MiB (68%)
Writing library                  : XviD 1.2.1 (UTC 2008-12-04)

Audio
ID                               : 1
Format                           : AC-3
Format/Info                      : Audio Coding 3
Mode extension                   : CM (complete main)
Codec ID                         : 2000
Duration                         : 1h 28mn
Bit rate mode                    : Constant
Bit rate                         : 448 Kbps
Channel(s)                       : 6 channels
Channel positions                : Front: L C R, Side: L R, LFE
Sampling rate                    : 48.0 KHz
Bit depth                        : 16 bits
Compression mode                 : Lossy
Stream size                      : 284 MiB (32%)
Alignment                        : Split accross interleaves
Interleave, duration             : 96 ms (2.40 video frames)
Interleave, preload duration     : 96 ms
Language                         : English

